# xmcd
#
# Track frame offsets:
# 150
# 30008
# 61099
# 94678
# 122356
# 177136
# 211877
# 252764
# 283081
# 312686
#
# Disc length: 4616 seconds
#
#
# Revision: 0
# Processed by: cddbd v1.5.2PL0 Copyright (c) Steve Scherf et al.
# Submitted via: FreeRIP 2.945 
#
DISCID=7c12060a
DTITLE=Herriot-J1977 - Wise-Wonderful12
DYEAR=1977
DGENRE=Jungle
TTITLE0=WW 1201
TTITLE1=WW 1202
TTITLE2=WW 1203
TTITLE3=WW 1204
TTITLE4=WW 1205
TTITLE5=WW 1206
TTITLE6=WW 1207
TTITLE7=WW 1208
TTITLE8=WW 1209
TTITLE9=WW 1210
EXTD=All Things Wise and Wonderful 12 CDs\nby James Herriot - read by Christopher Timothy\nRennasance Audio - Jungle Country
EXTT0=
EXTT1=
EXTT2=
EXTT3=
EXTT4=
EXTT5=
EXTT6=
EXTT7=
EXTT8=
EXTT9=
PLAYORDER=
